<?xml version="1.0" encoding="utf-8"?>
<!-- Generator: Adobe Illustrator 25.1.0, SVG Export Plug-In . SVG Version: 6.00 Build 0)  -->
<svg version="1.1" id="레이어_1" xmlns="http://www.w3.org/2000/svg" xmlns:xlink="http://www.w3.org/1999/xlink" x="0px"
	 y="0px" viewBox="0 0 32 32" style="enable-background:new 0 0 32 32;" xml:space="preserve">
<style type="text/css">
	.st0{fill:none;}
</style>
<g id="Layer_2">
	<path d="M30.7,10H1.4c-0.7,0-1.2-0.4-1.2-1s0.5-1,1.2-1h29.3c0.7,0,1.2,0.4,1.2,1S31.4,10,30.7,10z"/>
	<path d="M30.7,17H1.4c-0.7,0-1.2-0.4-1.2-1s0.5-1,1.2-1h29.3c0.7,0,1.2,0.4,1.2,1S31.4,17,30.7,17z"/>
	<path d="M30.7,24H1.4c-0.7,0-1.2-0.4-1.2-1s0.5-1,1.2-1h29.3c0.7,0,1.2,0.4,1.2,1S31.4,24,30.7,24z"/>
</g>
<g id="frame">
	<rect y="0" class="st0" width="32" height="32"/>
</g>
</svg>
